# MagicaVoxel @ Ephtracy

# group
o 

# material
mtllib human.mtl
usemtl palette

# normals
vn -1 0 0
vn 1 0 0
vn 0 0 1
vn 0 0 -1
vn 0 -1 0
vn 0 1 0

# texcoords
vt 0.0332031 0.5
vt 0.0449219 0.5
vt 0.833984 0.5
vt 0.845703 0.5
vt 0.869141 0.5
vt 0.990234 0.5
vt 0.994141 0.5

# verts
v -1.2 1.6 0.2
v -1.2 1.6 -0.2
v -1.2 1.9 0.2
v -1.2 1.9 -0.2
v -0.4 0 0.2
v -0.4 0 -0.2
v -0.4 0.2 0.2
v -0.4 0.2 -0.2
v -0.4 0.9 0.2
v -0.4 0.9 -0.2
v -0.4 1.1 0.2
v -0.4 1.1 -0.2
v -0.4 1.6 0.2
v -0.4 1.6 -0.2
v -0.4 2 0.3
v -0.4 2 -0.3
v -0.4 2.1 -0.1
v -0.4 2.1 -0.3
v -0.4 2.3 -2.98023e-008
v -0.4 2.3 -0.1
v -0.4 2.4 0.1
v -0.4 2.4 -2.98023e-008
v -0.4 2.5 0.2
v -0.4 2.5 0.1
v -0.4 2.6 0.3
v -0.4 2.6 0.2
v -0.4 2.7 0.3
v -0.4 2.7 -0.3
v -0.2 1.9 0.1
v -0.2 1.9 -0.1
v -0.2 2 0.1
v -0.2 2 -0.1
v 1.19209e-007 0 0.2
v 1.19209e-007 0 -0.2
v 1.19209e-007 0.2 0.2
v 1.19209e-007 0.2 -0.2
v 1.19209e-007 0.8 0.2
v 1.19209e-007 0.8 -0.2
v -0.0999999 0 0.2
v -0.0999999 0 -0.2
v -0.0999999 0.2 0.2
v -0.0999999 0.2 -0.2
v -0.0999999 0.8 0.2
v -0.0999999 0.8 -0.2
v 0.1 1.9 0.1
v 0.1 1.9 -0.1
v 0.1 2 0.1
v 0.1 2 -0.1
v 0.3 0 0.2
v 0.3 0 -0.2
v 0.3 0.2 0.2
v 0.3 0.2 -0.2
v 0.3 0.9 0.2
v 0.3 0.9 -0.2
v 0.3 1.1 0.2
v 0.3 1.1 -0.2
v 0.3 1.6 0.2
v 0.3 1.6 -0.2
v 0.3 2 0.3
v 0.3 2 -0.3
v 0.3 2.1 -0.1
v 0.3 2.1 -0.3
v 0.3 2.3 -2.98023e-008
v 0.3 2.3 -0.1
v 0.3 2.4 0.1
v 0.3 2.4 -2.98023e-008
v 0.3 2.5 0.2
v 0.3 2.5 0.1
v 0.3 2.6 0.3
v 0.3 2.6 0.2
v 0.3 2.7 0.3
v 0.3 2.7 -0.3
v 1.1 1.6 0.2
v 1.1 1.6 -0.2
v 1.1 1.9 0.2
v 1.1 1.9 -0.2
v -0.4 2 0.3
v -0.4 2.6 0.3
v -0.4 2.7 0.3
v -0.3 2.2 0.3
v -0.3 2.3 0.3
v -0.3 2.4 0.3
v -0.3 2.5 0.3
v -0.2 2.1 0.3
v -0.2 2.2 0.3
v -0.2 2.3 0.3
v -0.2 2.4 0.3
v -0.2 2.5 0.3
v 0.1 2.1 0.3
v 0.1 2.2 0.3
v 0.1 2.3 0.3
v 0.1 2.4 0.3
v 0.1 2.5 0.3
v 0.2 2.2 0.3
v 0.2 2.3 0.3
v 0.2 2.4 0.3
v 0.2 2.5 0.3
v 0.3 2 0.3
v 0.3 2.6 0.3
v 0.3 2.7 0.3
v -1.2 1.6 0.2
v -1.2 1.9 0.2
v -0.7 1.6 0.2
v -0.7 1.9 0.2
v -0.4 0 0.2
v -0.4 0.2 0.2
v -0.4 0.9 0.2
v -0.4 1.1 0.2
v -0.4 1.6 0.2
v -0.2 0.9 0.2
v -0.2 1.1 0.2
v -0.2 1.8 0.2
v -0.2 1.9 0.2
v -0.0999999 0 0.2
v -0.0999999 0.2 0.2
v -0.0999999 0.8 0.2
v -0.0999999 1.7 0.2
v -0.0999999 1.8 0.2
v 1.19209e-007 0 0.2
v 1.19209e-007 0.2 0.2
v 1.19209e-007 0.8 0.2
v 1.19209e-007 1.7 0.2
v 1.19209e-007 1.8 0.2
v 0.1 0.9 0.2
v 0.1 1.1 0.2
v 0.1 1.8 0.2
v 0.1 1.9 0.2
v 0.3 0 0.2
v 0.3 0.2 0.2
v 0.3 0.9 0.2
v 0.3 1.1 0.2
v 0.3 1.6 0.2
v 0.6 1.6 0.2
v 0.6 1.9 0.2
v 1.1 1.6 0.2
v 1.1 1.9 0.2
v -0.2 1.9 0.1
v -0.2 2 0.1
v 0.1 1.9 0.1
v 0.1 2 0.1
v -0.2 1.9 -0.1
v -0.2 2 -0.1
v 0.1 1.9 -0.1
v 0.1 2 -0.1
v -1.2 1.6 -0.2
v -1.2 1.9 -0.2
v -0.7 1.6 -0.2
v -0.7 1.9 -0.2
v -0.4 0 -0.2
v -0.4 0.2 -0.2
v -0.4 0.9 -0.2
v -0.4 1.1 -0.2
v -0.4 1.6 -0.2
v -0.0999999 0 -0.2
v -0.0999999 0.2 -0.2
v -0.0999999 0.8 -0.2
v 1.19209e-007 0 -0.2
v 1.19209e-007 0.2 -0.2
v 1.19209e-007 0.8 -0.2
v 0.3 0 -0.2
v 0.3 0.2 -0.2
v 0.3 0.9 -0.2
v 0.3 1.1 -0.2
v 0.3 1.6 -0.2
v 0.6 1.6 -0.2
v 0.6 1.9 -0.2
v 1.1 1.6 -0.2
v 1.1 1.9 -0.2
v -0.4 2 -0.3
v -0.4 2.1 -0.3
v -0.4 2.7 -0.3
v 0.3 2 -0.3
v 0.3 2.1 -0.3
v 0.3 2.7 -0.3
v -0.4 0 0.2
v -0.0999999 0 0.2
v 1.19209e-007 0 0.2
v 0.3 0 0.2
v -0.4 0 -0.2
v -0.0999999 0 -0.2
v 1.19209e-007 0 -0.2
v 0.3 0 -0.2
v -0.0999999 0.8 0.2
v 1.19209e-007 0.8 0.2
v -0.0999999 0.8 -0.2
v 1.19209e-007 0.8 -0.2
v -1.2 1.6 0.2
v -0.7 1.6 0.2
v -0.4 1.6 0.2
v 0.3 1.6 0.2
v 0.6 1.6 0.2
v 1.1 1.6 0.2
v -1.2 1.6 -0.2
v -0.7 1.6 -0.2
v -0.4 1.6 -0.2
v 0.3 1.6 -0.2
v 0.6 1.6 -0.2
v 1.1 1.6 -0.2
v -0.4 2 0.3
v 0.3 2 0.3
v -0.2 2 0.1
v 0.1 2 0.1
v -0.2 2 -0.1
v 0.1 2 -0.1
v -0.4 2 -0.3
v 0.3 2 -0.3
v -1.2 1.9 0.2
v -0.7 1.9 0.2
v -0.2 1.9 0.2
v 0.1 1.9 0.2
v 0.6 1.9 0.2
v 1.1 1.9 0.2
v -0.3 1.9 0.1
v -0.2 1.9 0.1
v 0.1 1.9 0.1
v 0.2 1.9 0.1
v -0.3 1.9 -0.1
v -0.2 1.9 -0.1
v 0.1 1.9 -0.1
v 0.2 1.9 -0.1
v -1.2 1.9 -0.2
v -0.7 1.9 -0.2
v 0.6 1.9 -0.2
v 1.1 1.9 -0.2
v -0.4 2.7 0.3
v 0.3 2.7 0.3
v -0.4 2.7 -0.3
v 0.3 2.7 -0.3

# faces
f 3/1/1 2/1/1 1/1/1
f 4/1/1 2/1/1 3/1/1
f 7/7/1 6/7/1 5/7/1
f 8/7/1 6/7/1 7/7/1
f 9/3/1 8/3/1 7/3/1
f 10/3/1 8/3/1 9/3/1
f 11/5/1 10/5/1 9/5/1
f 12/5/1 10/5/1 11/5/1
f 13/4/1 12/4/1 11/4/1
f 14/4/1 12/4/1 13/4/1
f 17/1/1 16/1/1 15/1/1
f 18/1/1 16/1/1 17/1/1
f 19/1/1 17/1/1 15/1/1
f 20/7/1 18/7/1 17/7/1
f 20/1/1 17/1/1 19/1/1
f 21/1/1 19/1/1 15/1/1
f 22/7/1 20/7/1 19/7/1
f 22/1/1 19/1/1 21/1/1
f 23/1/1 21/1/1 15/1/1
f 24/7/1 22/7/1 21/7/1
f 24/1/1 21/1/1 23/1/1
f 25/1/1 23/1/1 15/1/1
f 26/7/1 24/7/1 23/7/1
f 26/1/1 23/1/1 25/1/1
f 27/7/1 26/7/1 25/7/1
f 28/7/1 18/7/1 20/7/1
f 28/7/1 26/7/1 27/7/1
f 28/7/1 20/7/1 22/7/1
f 28/7/1 24/7/1 26/7/1
f 28/7/1 22/7/1 24/7/1
f 31/1/1 30/1/1 29/1/1
f 32/1/1 30/1/1 31/1/1
f 35/7/1 34/7/1 33/7/1
f 36/7/1 34/7/1 35/7/1
f 37/3/1 36/3/1 35/3/1
f 38/3/1 36/3/1 37/3/1
f 39/7/2 40/7/2 41/7/2
f 41/7/2 40/7/2 42/7/2
f 41/3/2 42/3/2 43/3/2
f 43/3/2 42/3/2 44/3/2
f 45/1/2 46/1/2 47/1/2
f 47/1/2 46/1/2 48/1/2
f 49/7/2 50/7/2 51/7/2
f 51/7/2 50/7/2 52/7/2
f 51/3/2 52/3/2 53/3/2
f 53/3/2 52/3/2 54/3/2
f 53/5/2 54/5/2 55/5/2
f 55/5/2 54/5/2 56/5/2
f 55/4/2 56/4/2 57/4/2
f 57/4/2 56/4/2 58/4/2
f 59/1/2 60/1/2 61/1/2
f 61/1/2 60/1/2 62/1/2
f 59/1/2 61/1/2 63/1/2
f 61/7/2 62/7/2 64/7/2
f 63/1/2 61/1/2 64/1/2
f 59/1/2 63/1/2 65/1/2
f 63/7/2 64/7/2 66/7/2
f 65/1/2 63/1/2 66/1/2
f 59/1/2 65/1/2 67/1/2
f 65/7/2 66/7/2 68/7/2
f 67/1/2 65/1/2 68/1/2
f 59/1/2 67/1/2 69/1/2
f 67/7/2 68/7/2 70/7/2
f 69/1/2 67/1/2 70/1/2
f 69/7/2 70/7/2 71/7/2
f 64/7/2 62/7/2 72/7/2
f 71/7/2 70/7/2 72/7/2
f 66/7/2 64/7/2 72/7/2
f 70/7/2 68/7/2 72/7/2
f 68/7/2 66/7/2 72/7/2
f 73/1/2 74/1/2 75/1/2
f 75/1/2 74/1/2 76/1/2
f 80/1/3 78/1/3 77/1/3
f 81/1/3 78/1/3 80/1/3
f 82/1/3 78/1/3 81/1/3
f 83/1/3 78/1/3 82/1/3
f 84/1/3 80/1/3 77/1/3
f 85/6/3 81/6/3 80/6/3
f 85/1/3 80/1/3 84/1/3
f 86/1/3 82/1/3 81/1/3
f 86/6/3 81/6/3 85/6/3
f 87/6/3 83/6/3 82/6/3
f 87/1/3 82/1/3 86/1/3
f 88/1/3 78/1/3 83/1/3
f 88/6/3 83/6/3 87/6/3
f 89/1/3 84/1/3 77/1/3
f 89/6/3 85/6/3 84/6/3
f 90/1/3 87/1/3 86/1/3
f 90/6/3 85/6/3 89/6/3
f 90/1/3 88/1/3 87/1/3
f 90/1/3 86/1/3 85/1/3
f 91/1/3 88/1/3 90/1/3
f 92/1/3 88/1/3 91/1/3
f 93/1/3 78/1/3 88/1/3
f 93/1/3 88/1/3 92/1/3
f 94/1/3 90/1/3 89/1/3
f 94/6/3 91/6/3 90/6/3
f 95/1/3 92/1/3 91/1/3
f 95/6/3 91/6/3 94/6/3
f 96/6/3 93/6/3 92/6/3
f 96/1/3 92/1/3 95/1/3
f 97/1/3 78/1/3 93/1/3
f 97/6/3 93/6/3 96/6/3
f 98/1/3 89/1/3 77/1/3
f 98/1/3 94/1/3 89/1/3
f 98/1/3 97/1/3 96/1/3
f 98/1/3 95/1/3 94/1/3
f 98/1/3 96/1/3 95/1/3
f 99/7/3 79/7/3 78/7/3
f 99/1/3 97/1/3 98/1/3
f 99/1/3 78/1/3 97/1/3
f 100/7/3 79/7/3 99/7/3
f 103/1/3 102/1/3 101/1/3
f 104/1/3 102/1/3 103/1/3
f 109/4/3 104/4/3 103/4/3
f 110/5/3 108/5/3 107/5/3
f 110/3/3 107/3/3 106/3/3
f 111/4/3 109/4/3 108/4/3
f 111/5/3 108/5/3 110/5/3
f 112/4/3 104/4/3 109/4/3
f 112/4/3 109/4/3 111/4/3
f 113/4/3 104/4/3 112/4/3
f 114/7/3 106/7/3 105/7/3
f 115/3/3 110/3/3 106/3/3
f 115/7/3 106/7/3 114/7/3
f 116/3/3 110/3/3 115/3/3
f 117/4/3 112/4/3 111/4/3
f 118/1/3 113/1/3 112/1/3
f 118/4/3 112/4/3 117/4/3
f 121/3/3 110/3/3 116/3/3
f 122/4/3 117/4/3 111/4/3
f 122/1/3 118/1/3 117/1/3
f 123/1/3 113/1/3 118/1/3
f 123/1/3 118/1/3 122/1/3
f 124/2/3 111/2/3 110/2/3
f 124/3/3 121/3/3 120/3/3
f 124/3/3 110/3/3 121/3/3
f 125/4/3 123/4/3 122/4/3
f 125/2/3 111/2/3 124/2/3
f 125/4/3 122/4/3 111/4/3
f 126/1/3 113/1/3 123/1/3
f 126/4/3 123/4/3 125/4/3
f 127/1/3 113/1/3 126/1/3
f 128/7/3 120/7/3 119/7/3
f 129/3/3 124/3/3 120/3/3
f 129/7/3 120/7/3 128/7/3
f 130/5/3 125/5/3 124/5/3
f 130/3/3 124/3/3 129/3/3
f 131/4/3 126/4/3 125/4/3
f 131/5/3 125/5/3 130/5/3
f 131/4/3 127/4/3 126/4/3
f 132/4/3 127/4/3 131/4/3
f 133/4/3 127/4/3 132/4/3
f 134/4/3 127/4/3 133/4/3
f 135/1/3 134/1/3 133/1/3
f 136/1/3 134/1/3 135/1/3
f 139/1/3 138/1/3 137/1/3
f 140/1/3 138/1/3 139/1/3
f 141/1/4 142/1/4 143/1/4
f 143/1/4 142/1/4 144/1/4
f 145/1/4 146/1/4 147/1/4
f 147/1/4 146/1/4 148/1/4
f 147/4/4 148/4/4 153/4/4
f 149/7/4 150/7/4 154/7/4
f 150/3/4 151/3/4 155/3/4
f 154/7/4 150/7/4 155/7/4
f 155/3/4 151/3/4 156/3/4
f 156/3/4 151/3/4 159/3/4
f 157/7/4 158/7/4 160/7/4
f 158/3/4 159/3/4 161/3/4
f 160/7/4 158/7/4 161/7/4
f 151/5/4 152/5/4 162/5/4
f 161/3/4 159/3/4 162/3/4
f 159/3/4 151/3/4 162/3/4
f 152/4/4 153/4/4 163/4/4
f 162/5/4 152/5/4 163/5/4
f 153/4/4 148/4/4 164/4/4
f 163/4/4 153/4/4 164/4/4
f 164/4/4 148/4/4 165/4/4
f 165/4/4 148/4/4 166/4/4
f 165/1/4 166/1/4 167/1/4
f 167/1/4 166/1/4 168/1/4
f 169/1/4 170/1/4 172/1/4
f 170/7/4 171/7/4 173/7/4
f 172/1/4 170/1/4 173/1/4
f 173/7/4 171/7/4 174/7/4
f 179/7/5 176/7/5 175/7/5
f 180/7/5 176/7/5 179/7/5
f 181/7/5 178/7/5 177/7/5
f 182/7/5 178/7/5 181/7/5
f 185/3/5 184/3/5 183/3/5
f 186/3/5 184/3/5 185/3/5
f 193/1/5 188/1/5 187/1/5
f 194/4/5 189/4/5 188/4/5
f 194/1/5 188/1/5 193/1/5
f 195/4/5 189/4/5 194/4/5
f 196/4/5 191/4/5 190/4/5
f 197/1/5 192/1/5 191/1/5
f 197/4/5 191/4/5 196/4/5
f 198/1/5 192/1/5 197/1/5
f 201/1/5 200/1/5 199/1/5
f 202/1/5 200/1/5 201/1/5
f 203/1/5 201/1/5 199/1/5
f 204/1/5 200/1/5 202/1/5
f 205/1/5 203/1/5 199/1/5
f 205/1/5 204/1/5 203/1/5
f 206/1/5 200/1/5 204/1/5
f 206/1/5 204/1/5 205/1/5
f 208/4/6 209/4/6 213/4/6
f 209/1/6 210/1/6 214/1/6
f 213/4/6 209/4/6 214/4/6
f 210/4/6 211/4/6 215/4/6
f 214/1/6 210/1/6 215/1/6
f 215/4/6 211/4/6 216/4/6
f 208/4/6 213/4/6 217/4/6
f 213/1/6 214/1/6 217/1/6
f 217/1/6 214/1/6 218/1/6
f 215/1/6 216/1/6 219/1/6
f 216/4/6 211/4/6 220/4/6
f 219/1/6 216/1/6 220/1/6
f 207/1/6 208/1/6 221/1/6
f 218/4/6 219/4/6 222/4/6
f 221/1/6 208/1/6 222/1/6
f 217/4/6 218/4/6 222/4/6
f 219/4/6 220/4/6 222/4/6
f 208/4/6 217/4/6 222/4/6
f 220/4/6 211/4/6 223/4/6
f 222/4/6 220/4/6 223/4/6
f 211/1/6 212/1/6 223/1/6
f 223/1/6 212/1/6 224/1/6
f 225/7/6 226/7/6 227/7/6
f 227/7/6 226/7/6 228/7/6
